<mxfile host="app.diagrams.net" agent="Mozilla/5.0 (Windows NT 10.0; Win64; x64) AppleWebKit/537.36 (KHTML, like Gecko) Chrome/128.0.0.0 Safari/537.36 OPR/114.0.0.0" version="24.8.9" pages="2">
  <diagram name="login_register" id="UXM-BpHKArDy9R__xsEj">
    <mxGraphModel dx="1624" dy="2037" grid="1" gridSize="10" guides="1" tooltips="1" connect="1" arrows="1" fold="1" page="1" pageScale="1" pageWidth="827" pageHeight="1169" math="0" shadow="0">
      <root>
        <mxCell id="0" />
        <mxCell id="1" parent="0" />
        <mxCell id="5TmAC7Nvp5ibh0Hky8JZ-2" value="Ma utworzone konto " style="rhombus;strokeWidth=2;whiteSpace=wrap;" vertex="1" parent="1">
          <mxGeometry x="280" y="-980" width="109" height="109" as="geometry" />
        </mxCell>
        <mxCell id="5TmAC7Nvp5ibh0Hky8JZ-3" value="Loguje się na konto" style="rounded=1;arcSize=40;strokeWidth=2" vertex="1" parent="1">
          <mxGeometry x="540" y="-1060" width="128" height="49" as="geometry" />
        </mxCell>
        <mxCell id="5TmAC7Nvp5ibh0Hky8JZ-4" value="Czy udało się zalogować ?" style="rhombus;strokeWidth=2;whiteSpace=wrap;" vertex="1" parent="1">
          <mxGeometry x="790" y="-1105" width="179" height="139" as="geometry" />
        </mxCell>
        <mxCell id="5TmAC7Nvp5ibh0Hky8JZ-5" value="Zostaje przekierowany na stronę główną (w prawym górnym rogu pojawia się ikonka konta użytkownika)" style="whiteSpace=wrap;strokeWidth=2;" vertex="1" parent="1">
          <mxGeometry x="1160" y="-1110" width="139" height="80" as="geometry" />
        </mxCell>
        <mxCell id="5TmAC7Nvp5ibh0Hky8JZ-6" value="Użytkownik może wybrać opcje nie pamiętam hasła" style="whiteSpace=wrap;strokeWidth=2;" vertex="1" parent="1">
          <mxGeometry x="1180" y="-980" width="99" height="49" as="geometry" />
        </mxCell>
        <mxCell id="5TmAC7Nvp5ibh0Hky8JZ-7" value="" style="curved=1;startArrow=none;endArrow=block;exitX=0.99;exitY=0.5;entryX=0;entryY=0.5;entryDx=0;entryDy=0;" edge="1" parent="1" target="5TmAC7Nvp5ibh0Hky8JZ-2">
          <mxGeometry relative="1" as="geometry">
            <Array as="points" />
            <mxPoint x="294" y="-925.5" as="targetPoint" />
            <mxPoint x="210" y="-925.5" as="sourcePoint" />
          </mxGeometry>
        </mxCell>
        <mxCell id="5TmAC7Nvp5ibh0Hky8JZ-8" value="" style="curved=1;startArrow=none;endArrow=block;exitX=0.99;exitY=0.49;entryX=0;entryY=0.5;" edge="1" parent="1" source="5TmAC7Nvp5ibh0Hky8JZ-3" target="5TmAC7Nvp5ibh0Hky8JZ-4">
          <mxGeometry relative="1" as="geometry">
            <Array as="points" />
          </mxGeometry>
        </mxCell>
        <mxCell id="5TmAC7Nvp5ibh0Hky8JZ-10" value="" style="curved=1;endArrow=classic;html=1;rounded=0;exitX=0.5;exitY=0;exitDx=0;exitDy=0;entryX=0;entryY=0.5;entryDx=0;entryDy=0;" edge="1" parent="1" source="5TmAC7Nvp5ibh0Hky8JZ-2" target="5TmAC7Nvp5ibh0Hky8JZ-3">
          <mxGeometry width="50" height="50" relative="1" as="geometry">
            <mxPoint x="370" y="-980" as="sourcePoint" />
            <mxPoint x="510" y="-1000" as="targetPoint" />
            <Array as="points">
              <mxPoint x="360" y="-1000" />
              <mxPoint x="430" y="-1030" />
            </Array>
          </mxGeometry>
        </mxCell>
        <mxCell id="5TmAC7Nvp5ibh0Hky8JZ-11" value="TAK" style="edgeLabel;html=1;align=center;verticalAlign=middle;resizable=0;points=[];" vertex="1" connectable="0" parent="5TmAC7Nvp5ibh0Hky8JZ-10">
          <mxGeometry x="-0.1516" y="2" relative="1" as="geometry">
            <mxPoint as="offset" />
          </mxGeometry>
        </mxCell>
        <mxCell id="5TmAC7Nvp5ibh0Hky8JZ-12" value="" style="curved=1;endArrow=classic;html=1;rounded=0;exitX=0.5;exitY=1;exitDx=0;exitDy=0;entryX=0;entryY=0.5;entryDx=0;entryDy=0;" edge="1" parent="1" source="5TmAC7Nvp5ibh0Hky8JZ-2" target="5TmAC7Nvp5ibh0Hky8JZ-14">
          <mxGeometry width="50" height="50" relative="1" as="geometry">
            <mxPoint x="340" y="-851" as="sourcePoint" />
            <mxPoint x="510" y="-880" as="targetPoint" />
            <Array as="points">
              <mxPoint x="360" y="-860" />
              <mxPoint x="400" y="-850" />
              <mxPoint x="440" y="-850" />
            </Array>
          </mxGeometry>
        </mxCell>
        <mxCell id="5TmAC7Nvp5ibh0Hky8JZ-13" value="NIE" style="edgeLabel;html=1;align=center;verticalAlign=middle;resizable=0;points=[];" vertex="1" connectable="0" parent="5TmAC7Nvp5ibh0Hky8JZ-12">
          <mxGeometry x="-0.1516" y="2" relative="1" as="geometry">
            <mxPoint as="offset" />
          </mxGeometry>
        </mxCell>
        <mxCell id="5TmAC7Nvp5ibh0Hky8JZ-14" value="Tworzy konto użytkownika" style="rounded=1;arcSize=40;strokeWidth=2" vertex="1" parent="1">
          <mxGeometry x="540" y="-871" width="150" height="51" as="geometry" />
        </mxCell>
        <mxCell id="5TmAC7Nvp5ibh0Hky8JZ-15" value="" style="curved=1;endArrow=classic;html=1;rounded=0;exitX=0.5;exitY=0;exitDx=0;exitDy=0;entryX=0;entryY=0;entryDx=0;entryDy=0;" edge="1" parent="1" source="5TmAC7Nvp5ibh0Hky8JZ-4" target="5TmAC7Nvp5ibh0Hky8JZ-5">
          <mxGeometry width="50" height="50" relative="1" as="geometry">
            <mxPoint x="970" y="-1050" as="sourcePoint" />
            <mxPoint x="1175" y="-1105" as="targetPoint" />
            <Array as="points">
              <mxPoint x="1065" y="-1150" />
            </Array>
          </mxGeometry>
        </mxCell>
        <mxCell id="5TmAC7Nvp5ibh0Hky8JZ-16" value="TAK" style="edgeLabel;html=1;align=center;verticalAlign=middle;resizable=0;points=[];" vertex="1" connectable="0" parent="5TmAC7Nvp5ibh0Hky8JZ-15">
          <mxGeometry x="-0.1516" y="2" relative="1" as="geometry">
            <mxPoint as="offset" />
          </mxGeometry>
        </mxCell>
        <mxCell id="5TmAC7Nvp5ibh0Hky8JZ-17" value="" style="curved=1;endArrow=classic;html=1;rounded=0;exitX=0.5;exitY=1;exitDx=0;exitDy=0;entryX=0;entryY=0.75;entryDx=0;entryDy=0;" edge="1" parent="1" source="5TmAC7Nvp5ibh0Hky8JZ-4" target="5TmAC7Nvp5ibh0Hky8JZ-6">
          <mxGeometry width="50" height="50" relative="1" as="geometry">
            <mxPoint x="880" y="-960" as="sourcePoint" />
            <mxPoint x="1180" y="-955" as="targetPoint" />
            <Array as="points">
              <mxPoint x="1050" y="-925" />
            </Array>
          </mxGeometry>
        </mxCell>
        <mxCell id="5TmAC7Nvp5ibh0Hky8JZ-18" value="NIE" style="edgeLabel;html=1;align=center;verticalAlign=middle;resizable=0;points=[];" vertex="1" connectable="0" parent="5TmAC7Nvp5ibh0Hky8JZ-17">
          <mxGeometry x="-0.1516" y="2" relative="1" as="geometry">
            <mxPoint as="offset" />
          </mxGeometry>
        </mxCell>
        <mxCell id="5TmAC7Nvp5ibh0Hky8JZ-19" style="edgeStyle=orthogonalEdgeStyle;rounded=0;orthogonalLoop=1;jettySize=auto;html=1;exitX=1;exitY=0;exitDx=0;exitDy=0;entryX=0;entryY=0.5;entryDx=0;entryDy=0;" edge="1" parent="1" source="5TmAC7Nvp5ibh0Hky8JZ-22" target="5TmAC7Nvp5ibh0Hky8JZ-23">
          <mxGeometry relative="1" as="geometry">
            <Array as="points">
              <mxPoint x="907" y="-890" />
            </Array>
          </mxGeometry>
        </mxCell>
        <mxCell id="5TmAC7Nvp5ibh0Hky8JZ-20" style="edgeStyle=orthogonalEdgeStyle;rounded=0;orthogonalLoop=1;jettySize=auto;html=1;exitX=1;exitY=1;exitDx=0;exitDy=0;entryX=0;entryY=0.5;entryDx=0;entryDy=0;" edge="1" parent="1" source="5TmAC7Nvp5ibh0Hky8JZ-22" target="5TmAC7Nvp5ibh0Hky8JZ-24">
          <mxGeometry relative="1" as="geometry">
            <mxPoint x="1000" y="-800" as="targetPoint" />
            <Array as="points">
              <mxPoint x="907" y="-800" />
            </Array>
          </mxGeometry>
        </mxCell>
        <mxCell id="5TmAC7Nvp5ibh0Hky8JZ-21" style="edgeStyle=orthogonalEdgeStyle;rounded=0;orthogonalLoop=1;jettySize=auto;html=1;exitX=0.5;exitY=1;exitDx=0;exitDy=0;entryX=0;entryY=0.5;entryDx=0;entryDy=0;" edge="1" parent="1" source="5TmAC7Nvp5ibh0Hky8JZ-22" target="5TmAC7Nvp5ibh0Hky8JZ-26">
          <mxGeometry relative="1" as="geometry">
            <mxPoint x="874.666666666667" y="-700" as="targetPoint" />
          </mxGeometry>
        </mxCell>
        <mxCell id="5TmAC7Nvp5ibh0Hky8JZ-22" value="Wybiera spośród opcji rejestracji&amp;nbsp;" style="rhombus;whiteSpace=wrap;html=1;" vertex="1" parent="1">
          <mxGeometry x="820" y="-901" width="110" height="101" as="geometry" />
        </mxCell>
        <mxCell id="5TmAC7Nvp5ibh0Hky8JZ-23" value="konto google" style="rounded=1;whiteSpace=wrap;html=1;" vertex="1" parent="1">
          <mxGeometry x="997" y="-920" width="120" height="60" as="geometry" />
        </mxCell>
        <mxCell id="5TmAC7Nvp5ibh0Hky8JZ-24" value="telefon" style="rounded=1;whiteSpace=wrap;html=1;" vertex="1" parent="1">
          <mxGeometry x="997" y="-830" width="120" height="60" as="geometry" />
        </mxCell>
        <mxCell id="5TmAC7Nvp5ibh0Hky8JZ-25" style="edgeStyle=orthogonalEdgeStyle;rounded=0;orthogonalLoop=1;jettySize=auto;html=1;exitX=1;exitY=0.5;exitDx=0;exitDy=0;entryX=0.05;entryY=0.548;entryDx=0;entryDy=0;entryPerimeter=0;" edge="1" parent="1" source="5TmAC7Nvp5ibh0Hky8JZ-14" target="5TmAC7Nvp5ibh0Hky8JZ-22">
          <mxGeometry relative="1" as="geometry" />
        </mxCell>
        <mxCell id="5TmAC7Nvp5ibh0Hky8JZ-26" value="adres e-mail" style="rounded=1;whiteSpace=wrap;html=1;" vertex="1" parent="1">
          <mxGeometry x="997" y="-750" width="120" height="60" as="geometry" />
        </mxCell>
        <mxCell id="5TmAC7Nvp5ibh0Hky8JZ-27" value=" Znajduje się na stronie głównej" style="rounded=1;arcSize=40;strokeWidth=2;whiteSpace=wrap;" vertex="1" parent="1">
          <mxGeometry x="70" y="-965.5" width="140" height="80" as="geometry" />
        </mxCell>
        <mxCell id="5TmAC7Nvp5ibh0Hky8JZ-28" value="Użytkownik" style="shape=umlActor;verticalLabelPosition=bottom;verticalAlign=top;html=1;outlineConnect=0;" vertex="1" parent="1">
          <mxGeometry x="20" y="-961" width="30" height="60" as="geometry" />
        </mxCell>
      </root>
    </mxGraphModel>
  </diagram>
  <diagram id="sFceopvQHvPM85_xyXI8" name="account">
    <mxGraphModel dx="2207" dy="738" grid="1" gridSize="10" guides="1" tooltips="1" connect="1" arrows="1" fold="1" page="1" pageScale="1" pageWidth="827" pageHeight="1169" math="0" shadow="0">
      <root>
        <mxCell id="0" />
        <mxCell id="1" parent="0" />
        <mxCell id="GDPATZPzEDcKWIoBSw9Q-1" style="edgeStyle=orthogonalEdgeStyle;rounded=0;orthogonalLoop=1;jettySize=auto;html=1;exitX=1;exitY=0.5;exitDx=0;exitDy=0;entryX=0;entryY=0.5;entryDx=0;entryDy=0;" edge="1" parent="1" source="9t43LpdnYqC9v9-MGf1z-1" target="3TAzH9z2ATmfL9t_zpxz-1">
          <mxGeometry relative="1" as="geometry" />
        </mxCell>
        <mxCell id="9t43LpdnYqC9v9-MGf1z-1" value=" Znajduje się na stronie głównej" style="rounded=1;arcSize=40;strokeWidth=2;whiteSpace=wrap;" vertex="1" parent="1">
          <mxGeometry x="-760" y="80.5" width="140" height="80" as="geometry" />
        </mxCell>
        <mxCell id="9t43LpdnYqC9v9-MGf1z-2" value="Użytkownik" style="shape=umlActor;verticalLabelPosition=bottom;verticalAlign=top;html=1;outlineConnect=0;" vertex="1" parent="1">
          <mxGeometry x="-810" y="85" width="30" height="60" as="geometry" />
        </mxCell>
        <mxCell id="ETzJ6x-0aW8w8nkq-FWt-2" style="edgeStyle=orthogonalEdgeStyle;rounded=0;orthogonalLoop=1;jettySize=auto;html=1;exitX=1;exitY=0.5;exitDx=0;exitDy=0;entryX=0;entryY=0.5;entryDx=0;entryDy=0;" edge="1" parent="1" source="3TAzH9z2ATmfL9t_zpxz-1" target="ETzJ6x-0aW8w8nkq-FWt-1">
          <mxGeometry relative="1" as="geometry" />
        </mxCell>
        <mxCell id="3TAzH9z2ATmfL9t_zpxz-1" value="Przechodzi do profilu użytkownika" style="rounded=1;arcSize=40;strokeWidth=2;whiteSpace=wrap;" vertex="1" parent="1">
          <mxGeometry x="-560" y="80.5" width="140" height="80" as="geometry" />
        </mxCell>
        <mxCell id="ETzJ6x-0aW8w8nkq-FWt-4" style="edgeStyle=orthogonalEdgeStyle;rounded=0;orthogonalLoop=1;jettySize=auto;html=1;exitX=1;exitY=0.5;exitDx=0;exitDy=0;entryX=0;entryY=0.5;entryDx=0;entryDy=0;" edge="1" parent="1" source="ETzJ6x-0aW8w8nkq-FWt-1" target="ETzJ6x-0aW8w8nkq-FWt-3">
          <mxGeometry relative="1" as="geometry" />
        </mxCell>
        <mxCell id="ETzJ6x-0aW8w8nkq-FWt-6" style="edgeStyle=orthogonalEdgeStyle;rounded=0;orthogonalLoop=1;jettySize=auto;html=1;exitX=0.5;exitY=1;exitDx=0;exitDy=0;entryX=0;entryY=0.5;entryDx=0;entryDy=0;" edge="1" parent="1" source="ETzJ6x-0aW8w8nkq-FWt-1" target="ETzJ6x-0aW8w8nkq-FWt-5">
          <mxGeometry relative="1" as="geometry" />
        </mxCell>
        <mxCell id="ETzJ6x-0aW8w8nkq-FWt-1" value="Wybiera spośród opcji w profilu" style="rhombus;whiteSpace=wrap;html=1;" vertex="1" parent="1">
          <mxGeometry x="-360" y="70" width="110" height="101" as="geometry" />
        </mxCell>
        <mxCell id="ETzJ6x-0aW8w8nkq-FWt-8" style="edgeStyle=orthogonalEdgeStyle;rounded=0;orthogonalLoop=1;jettySize=auto;html=1;exitX=1;exitY=0.5;exitDx=0;exitDy=0;entryX=0;entryY=0.5;entryDx=0;entryDy=0;" edge="1" parent="1" source="ETzJ6x-0aW8w8nkq-FWt-3" target="ETzJ6x-0aW8w8nkq-FWt-9">
          <mxGeometry relative="1" as="geometry">
            <mxPoint y="120.5" as="targetPoint" />
          </mxGeometry>
        </mxCell>
        <mxCell id="ETzJ6x-0aW8w8nkq-FWt-3" value="Zmiana hasła" style="rounded=1;whiteSpace=wrap;html=1;" vertex="1" parent="1">
          <mxGeometry x="-200" y="90.5" width="120" height="60" as="geometry" />
        </mxCell>
        <mxCell id="ETzJ6x-0aW8w8nkq-FWt-5" value="Edycja konta użytkownika&lt;div&gt;&lt;br&gt;&lt;/div&gt;" style="rounded=1;whiteSpace=wrap;html=1;" vertex="1" parent="1">
          <mxGeometry x="-200" y="171" width="120" height="60" as="geometry" />
        </mxCell>
        <mxCell id="ETzJ6x-0aW8w8nkq-FWt-11" style="edgeStyle=orthogonalEdgeStyle;rounded=0;orthogonalLoop=1;jettySize=auto;html=1;exitX=1;exitY=0.5;exitDx=0;exitDy=0;entryX=0;entryY=0.5;entryDx=0;entryDy=0;" edge="1" parent="1" source="ETzJ6x-0aW8w8nkq-FWt-9" target="ETzJ6x-0aW8w8nkq-FWt-10">
          <mxGeometry relative="1" as="geometry" />
        </mxCell>
        <mxCell id="ETzJ6x-0aW8w8nkq-FWt-9" value="Wpisuje stare hasło i wybiera nowe (musi spełnić wymagania haseł)" style="rounded=1;whiteSpace=wrap;html=1;" vertex="1" parent="1">
          <mxGeometry x="-10" y="90.5" width="120" height="60" as="geometry" />
        </mxCell>
        <mxCell id="ETzJ6x-0aW8w8nkq-FWt-10" value="Czy udało się zmienić hasło ?" style="rhombus;whiteSpace=wrap;html=1;" vertex="1" parent="1">
          <mxGeometry x="190" y="65.75" width="110" height="109.5" as="geometry" />
        </mxCell>
        <mxCell id="ETzJ6x-0aW8w8nkq-FWt-12" value="Wylogowanie i przekierowanie na ekran logowania" style="rounded=1;whiteSpace=wrap;html=1;" vertex="1" parent="1">
          <mxGeometry x="370" y="90.5" width="120" height="60" as="geometry" />
        </mxCell>
        <mxCell id="ETzJ6x-0aW8w8nkq-FWt-15" value="" style="curved=1;endArrow=classic;html=1;rounded=0;exitX=0.5;exitY=0;exitDx=0;exitDy=0;" edge="1" parent="1" source="ETzJ6x-0aW8w8nkq-FWt-10">
          <mxGeometry width="50" height="50" relative="1" as="geometry">
            <mxPoint x="250" y="65.75" as="sourcePoint" />
            <mxPoint x="430" y="90" as="targetPoint" />
            <Array as="points">
              <mxPoint x="280" y="40" />
              <mxPoint x="370" y="40" />
            </Array>
          </mxGeometry>
        </mxCell>
        <mxCell id="ETzJ6x-0aW8w8nkq-FWt-16" value="TAK" style="edgeLabel;html=1;align=center;verticalAlign=middle;resizable=0;points=[];" vertex="1" connectable="0" parent="ETzJ6x-0aW8w8nkq-FWt-15">
          <mxGeometry x="-0.0377" y="-1" relative="1" as="geometry">
            <mxPoint as="offset" />
          </mxGeometry>
        </mxCell>
        <mxCell id="ETzJ6x-0aW8w8nkq-FWt-17" value="" style="curved=1;endArrow=classic;html=1;rounded=0;exitX=0.5;exitY=1;exitDx=0;exitDy=0;entryX=0.5;entryY=1;entryDx=0;entryDy=0;" edge="1" parent="1" source="ETzJ6x-0aW8w8nkq-FWt-10" target="ETzJ6x-0aW8w8nkq-FWt-9">
          <mxGeometry width="50" height="50" relative="1" as="geometry">
            <mxPoint x="270" y="190" as="sourcePoint" />
            <mxPoint x="455" y="190" as="targetPoint" />
            <Array as="points">
              <mxPoint x="160" y="240" />
            </Array>
          </mxGeometry>
        </mxCell>
        <mxCell id="ETzJ6x-0aW8w8nkq-FWt-20" value="NIE" style="edgeLabel;html=1;align=center;verticalAlign=middle;resizable=0;points=[];" vertex="1" connectable="0" parent="ETzJ6x-0aW8w8nkq-FWt-17">
          <mxGeometry x="-0.3532" y="-31" relative="1" as="geometry">
            <mxPoint x="-1" as="offset" />
          </mxGeometry>
        </mxCell>
      </root>
    </mxGraphModel>
  </diagram>
</mxfile>
